<svg id="Camada_1" data-name="Camada 1" xmlns="http://www.w3.org/2000/svg" viewBox="0 0 3784.6 2690.18"><defs><style>.cls-1{fill:#004b98;}</style></defs><path class="cls-1" d="M3811.47,1281.35c0,134.37,0,263.46,0,392.55q0,663.72-.19,1327.45c-.12,124.63-79,221.2-200.25,246.71-17.15,3.6-35.21,4-52.85,4q-1637.88.25-3275.76.06C135,3252.07,28.1,3146.46,28,2999.33q-.61-848.51-.14-1697v-24.81c64.05,39,124.3,75.52,184.35,112.35q707.34,433.94,1414.63,868c64.61,39.64,129,79.68,193.92,118.77,65.88,39.67,132.7,39.81,198.32-.28q700.54-428,1400.8-856.56,186.43-114,373-227.78C3797.68,1289.05,3802.65,1286.39,3811.47,1281.35Z" transform="translate(-27.4 -562)"/><path class="cls-1" d="M1922.06,562.08q817.36,0,1634.72.15c147.28.11,253.36,106.94,255.21,253.15.25,20.37-6.35,31.14-23.61,41.66q-559.64,341.25-1118.54,683.74-362.65,221.85-725.09,444.07c-18.43,11.34-31.23,11.45-49.83,0q-770.93-474-1542.61-946.71C250.8,975.9,149.68,913,47.86,851.23c-14.27-8.65-20.37-17.14-20.46-34.53-.75-142.64,107.8-254.32,251.08-254.44Q1100.27,561.58,1922.06,562.08Z" transform="translate(-27.4 -562)"/></svg>