<svg id="Camada_1" data-name="Camada 1" xmlns="http://www.w3.org/2000/svg" viewBox="0 0 3762 3762"><defs><style>.cls-1{fill:#004b98;}</style></defs><path class="cls-1" d="M1052.63,41.47c64.44,1.5,112,32.68,132.82,94.06q146.91,434,290.6,869.13c21.67,65.75,2.9,122.38-52.55,166.79-69.66,55.79-135.46,116.75-207.78,168.72-42.62,30.63-44.83,58-22.16,99.7,53.18,97.88,98.29,200.57,156.8,295,255.3,412.29,608.09,713.69,1050.35,912.22,45.2,20.29,70.85,14.18,100-25.21,47.68-64.5,101.34-124.57,152.49-186.5,70.81-85.73,109.48-97.5,216.11-62.07q406.33,135,812.24,271.31c86.9,29.16,116.57,69.65,118,163.61q2.43,157.3.76,314.67c-4.34,382.95-299.25,677.83-683,678.06-511.52.31-999.62-109-1445.07-361.71C624.24,2844.71,71.69,1943.52,39.31,735.08,31.37,438.83,177.22,225.25,444.67,97c127-60.92,263.58-61.17,408.67-55.88C914.22,41.1,983.46,39.85,1052.63,41.47Z" transform="translate(-39 -39)"/></svg>