<svg id="Camada_1" data-name="Camada 1" xmlns="http://www.w3.org/2000/svg" viewBox="0 0 3689.07 3704.66"><defs><style>.cls-1{fill:#004b98;}</style></defs><path class="cls-1" d="M83.56,857.44C77.18,660.32,133,482.08,246.28,321.6,307.53,234.87,386.36,167,476.69,112.3a366.61,366.61,0,0,1,64.9-30.83c92.16-33.3,155.64-6.53,197.09,82.58,111.08,238.81,234.27,471.16,371.43,696,45.68,74.89,93.18,148.69,140.63,222.48,51.93,80.77,39.64,149.92-37.86,206.4q-133,96.91-266.17,193.6c-14,10.11-22.06,17.73-12.72,37.64,165.23,352.24,371,675.34,665.92,935.25,215.86,190.21,459.94,335.83,718.53,459.08,18.77,8.95,27.19,3.55,37.87-11.51,64.69-91.16,130.16-181.76,195.57-272.41,52.63-72.94,122.18-84.32,198.69-37.06,166.12,102.61,331.17,207.24,500.75,303.85,134.06,76.37,273.67,143.14,411.87,212,95.72,47.72,123.9,110.45,81.86,209.52-53.67,126.49-142.9,225.15-255.33,302.5-177.9,122.4-376.22,161.84-589.62,148.38-255-16.08-492.74-97.7-728.17-186.22C1487,3326.07,955.61,2878.88,561.85,2265.24,345.71,1928.4,209.82,1558,118,1170.91,93.85,1069,88.77,962.58,74.93,858.22Z" transform="translate(-74.93 -67.67)"/></svg>